<?xml version="1.0" standalone="no"?><!DOCTYPE svg PUBLIC "-//W3C//DTD SVG 1.1//EN" "http://www.w3.org/Graphics/SVG/1.1/DTD/svg11.dtd"><svg t="1589802653315" class="icon" viewBox="0 0 1024 1024" version="1.1" xmlns="http://www.w3.org/2000/svg" p-id="1827" xmlns:xlink="http://www.w3.org/1999/xlink" width="32" height="32"><defs><style type="text/css"></style></defs><path d="M891.63776 544.256l35.5328-280.10496-263.0656-99.82976L369.74592 304.896 94.83264 188.80512l38.78912 305.6128-7.13728 45.99808 1.97632 0.3072L97.91488 797.41952l289.73056 54.33344 277.88288-52.93056 263.63904 60.84608L891.63776 544.256zM387.60448 820.49024l-255.78496-47.9744 30.6688-257.72032-0.03072 0 2.31424-19.05664-32.72704-257.88416 238.4896 100.72064 294.95296-140.88192 228.16768 86.58944-32.9728 259.85024 32.82944 275.77344-227.3792-52.46976L387.60448 820.49024zM827.42272 700.20096c0 16.49664-13.37344 29.87008-29.87008 29.87008s-29.87008-13.37344-29.87008-29.87008c0-7.39328 2.77504-14.05952 7.2192-19.28192-23.43936-17.16224-48.19968-36.07552-57.27232-61.99296-12.27776-35.09248 27.70944-100.74112-11.19232-124.0064-36.33152-21.74976-96.01024 2.37568-117.87264-38.41024-3.15392 1.1264-6.49216 1.85344-10.02496 1.85344-1.10592 0-2.17088-0.21504-3.24608-0.32768-5.65248 9.71776-9.25696 20.70528-10.97728 32.28672-2.37568 16.00512 2.74432 31.65184 1.28 47.59552-1.55648 17.03936-7.77216 33.49504-25.33376 39.38304-27.37152 9.1648-106.16832-14.22336-104.69376 28.672 0.14336 4.07552-1.81248 6.73792-4.4544 8.30464-3.31776 12.88192-14.90944 22.43584-28.8256 22.43584-16.49664 0-29.87008-13.37344-29.87008-29.87008 0-11.20256 6.23616-20.8384 15.36-25.9584-2.75456-18.61632-0.99328-37.07904-3.16416-55.98208-3.14368-27.19744-20.24448-42.56768-43.19232-54.54848-22.55872-11.776-47.18592-23.25504-60.71296-44.17536-3.55328 1.49504-7.45472 2.32448-11.55072 2.32448-16.49664 0-29.87008-13.37344-29.87008-29.87008s13.37344-29.87008 29.87008-29.87008 29.87008 13.37344 29.87008 29.87008c0 4.64896-1.14688 9.00096-3.05152 12.93312 14.9504 29.6448 57.31328 36.52608 81.46944 57.4976 34.75456 30.14656 23.28576 69.1712 30.28992 108.47232 4.32128 0.79872 8.30464 2.52928 11.75552 4.97664 14.1312-27.84256 59.17696-21.32992 89.74336-21.6064 10.94656-0.09216 31.24224 0.82944 34.37568-13.59872 3.77856-17.36704-1.2288-34.7648-0.54272-52.25472 0.64512-16.30208 5.5296-32.24576 13.70112-46.19264-4.99712-5.33504-8.12032-12.47232-8.12032-20.35712 0-16.49664 13.37344-29.87008 29.87008-29.87008s29.87008 13.37344 29.87008 29.87008c0 5.08928-1.39264 9.82016-3.6352 14.00832 17.664 40.94976 95.8976 8.77568 124.5184 46.2336 26.46016 34.65216 3.33824 70.79936 5.02784 108.55424 1.40288 31.24224 33.49504 53.99552 60.40576 73.32864 0.94208-0.09216 1.85344-0.27648 2.80576-0.27648C814.05952 670.33088 827.42272 683.70432 827.42272 700.20096z" p-id="1828"></path></svg>