<?xml version="1.0" standalone="no"?><!DOCTYPE svg PUBLIC "-//W3C//DTD SVG 1.1//EN" "http://www.w3.org/Graphics/SVG/1.1/DTD/svg11.dtd"><svg t="1589805557842" class="icon" viewBox="0 0 1024 1024" version="1.1" xmlns="http://www.w3.org/2000/svg" p-id="2604" width="32" height="32" xmlns:xlink="http://www.w3.org/1999/xlink"><defs><style type="text/css"></style></defs><path d="M832 640H384V192c0-36.266667-27.733333-64-64-64H192C155.733333 128 128 155.733333 128 192v597.333333c0 27.733333 10.666667 55.466667 32 74.666667 19.2 21.333333 46.933333 32 74.666667 32h597.333333c36.266667 0 64-27.733333 64-64v-128c0-36.266667-27.733333-64-64-64z m21.333333 192c0 12.8-8.533333 21.333333-21.333333 21.333333h-106.666667v-64c0-12.8-8.533333-21.333333-21.333333-21.333333s-21.333333 8.533333-21.333333 21.333333v64h-85.333334v-64c0-12.8-8.533333-21.333333-21.333333-21.333333s-21.333333 8.533333-21.333333 21.333333v64h-85.333334v-64c0-12.8-8.533333-21.333333-21.333333-21.333333s-21.333333 8.533333-21.333333 21.333333v64h-85.333334v-64c0-12.8-8.533333-21.333333-21.333333-21.333333s-21.333333 8.533333-21.333333 21.333333v64h-64c-17.066667 0-34.133333-6.4-44.8-19.2-12.8-12.8-19.2-27.733333-19.2-44.8v-106.666666h64c12.8 0 21.333333-8.533333 21.333333-21.333334s-8.533333-21.333333-21.333333-21.333333H170.666667v-85.333333h64c12.8 0 21.333333-8.533333 21.333333-21.333334s-8.533333-21.333333-21.333333-21.333333H170.666667v-85.333333h64c12.8 0 21.333333-8.533333 21.333333-21.333334s-8.533333-21.333333-21.333333-21.333333H170.666667v-85.333333h64c12.8 0 21.333333-8.533333 21.333333-21.333334s-8.533333-21.333333-21.333333-21.333333H170.666667V192c0-12.8 8.533333-21.333333 21.333333-21.333333h128c12.8 0 21.333333 8.533333 21.333333 21.333333v469.333333c0 12.8 8.533333 21.333333 21.333334 21.333334h469.333333c12.8 0 21.333333 8.533333 21.333333 21.333333v128z" fill="#FFFFFF" p-id="2605"></path></svg>