<?xml version="1.0" standalone="no"?><!DOCTYPE svg PUBLIC "-//W3C//DTD SVG 1.1//EN" "http://www.w3.org/Graphics/SVG/1.1/DTD/svg11.dtd"><svg t="1601209693447" class="icon" viewBox="0 0 1024 1024" version="1.1" xmlns="http://www.w3.org/2000/svg" p-id="8496" xmlns:xlink="http://www.w3.org/1999/xlink" width="128" height="128"><defs><style type="text/css"></style></defs><path d="M640 682.666667a42.666667 42.666667 0 0 1 4.992 85.034666L640 768H42.666667a42.666667 42.666667 0 0 1-4.992-85.034667L42.666667 682.666667h597.333333z m128-682.666667a42.666667 42.666667 0 0 1 42.368 37.674667L810.666667 42.666667v554.666666a42.666667 42.666667 0 0 1-85.034667 4.992L725.333333 597.333333V42.666667a42.666667 42.666667 0 0 1 42.666667-42.666667z" p-id="8497"></path><path d="M981.333333 213.333333a42.666667 42.666667 0 0 1 4.992 85.034667L981.333333 298.666667H552.576l-162.474667 170.666666H128a42.666667 42.666667 0 0 1-4.992-85.034666L128 384h225.493333l162.56-170.666667H981.333333z" p-id="8498"></path><path d="M256 384a42.666667 42.666667 0 0 1 42.368 37.674667L298.666667 426.666667v554.666666a42.666667 42.666667 0 0 1-85.034667 4.992L213.333333 981.333333V426.666667a42.666667 42.666667 0 0 1 42.666667-42.666667zM768 554.666667a170.666667 170.666667 0 1 0 0 341.333333 170.666667 170.666667 0 0 0 0-341.333333z m0 85.333333a85.333333 85.333333 0 1 1 0 170.666667 85.333333 85.333333 0 0 1 0-170.666667z" p-id="8499"></path></svg>